<svg width="24" height="24" viewBox="0 0 24 24" fill="none" xmlns="http://www.w3.org/2000/svg">
<path d="M8.81141 2L5.19141 5.63" stroke="currentColor" stroke-width="1.5" stroke-miterlimit="10" stroke-linecap="round" stroke-linejoin="round"/>
<path d="M15.1914 2L18.8114 5.63" stroke="currentColor" stroke-width="1.5" stroke-miterlimit="10" stroke-linecap="round" stroke-linejoin="round"/>
<path d="M2 7.8501C2 6.0001 2.99 5.8501 4.22 5.8501H19.78C21.01 5.8501 22 6.0001 22 7.8501C22 10.0001 21.01 9.8501 19.78 9.8501H4.22C2.99 9.8501 2 10.0001 2 7.8501Z" stroke="currentColor" stroke-width="1.5"/>
<path d="M3.5 10L4.91 18.64C5.23 20.58 6 22 8.86 22H14.89C18 22 18.46 20.64 18.82 18.76L20.5 10" stroke="currentColor" stroke-width="1.5" stroke-linecap="round"/>
<path d="M12 19C13.6569 19 15 17.6569 15 16C15 14.3431 13.6569 13 12 13C10.3431 13 9 14.3431 9 16C9 17.6569 10.3431 19 12 19Z" stroke="currentColor" stroke-width="1.5" stroke-miterlimit="10" stroke-linecap="round" stroke-linejoin="round"/>
<path d="M10.8301 15.9999L11.3176 16.4874C11.4601 16.6299 11.6926 16.6374 11.8351 16.4949L13.1701 15.2649" stroke="currentColor" stroke-width="1.5" stroke-linecap="round" stroke-linejoin="round"/>
</svg>
