<svg width="24" height="25" viewBox="0 0 24 25" fill="none" xmlns="http://www.w3.org/2000/svg">
<path d="M21.5844 5.29136C21.3766 5.29756 21.1793 5.38442 21.0344 5.53355L8.80002 17.7679L3.76564 12.7336C3.69193 12.6568 3.60363 12.5955 3.50593 12.5532C3.40823 12.511 3.30308 12.4887 3.19665 12.4876C3.09022 12.4865 2.98464 12.5067 2.88609 12.5469C2.78755 12.5872 2.69803 12.6467 2.62277 12.7219C2.5475 12.7972 2.48801 12.8867 2.44778 12.9853C2.40755 13.0838 2.38739 13.1894 2.38847 13.2958C2.38955 13.4022 2.41186 13.5074 2.45409 13.6051C2.49632 13.7028 2.55761 13.7911 2.63439 13.8648L8.23439 19.4648C8.38443 19.6148 8.58788 19.699 8.80002 19.699C9.01216 19.699 9.21561 19.6148 9.36564 19.4648L22.1656 6.6648C22.2812 6.55243 22.3602 6.40776 22.3922 6.24974C22.4241 6.09173 22.4076 5.92774 22.3448 5.77927C22.282 5.6308 22.1757 5.50478 22.0401 5.41772C21.9044 5.33065 21.7455 5.28661 21.5844 5.29136Z" fill="currentColor"/>
</svg>
