<svg width="24" height="24" viewBox="0 0 24 24" fill="none" xmlns="http://www.w3.org/2000/svg">
<path d="M7.7813 3H16.216C19.1641 3 20.9991 5.08119 20.9991 8.02638V15.9736C20.9991 18.9188 19.1641 21 16.215 21H7.7813C4.83319 21 2.99915 18.9188 2.99915 15.9736V8.02638C2.99915 5.08119 4.84196 3 7.7813 3Z" stroke="currentColor" stroke-width="1.5" stroke-linecap="round" stroke-linejoin="round"/>
<path d="M11.8432 8.82812C9.90888 8.82812 8.34045 10.3966 8.34045 12.3308C8.34045 14.2651 9.90888 15.8335 11.8432 15.8335C13.7775 15.8335 15.3459 14.2651 15.3459 12.3308C15.3459 10.3966 13.7775 8.82812 11.8432 8.82812Z" stroke="currentColor" stroke-width="1.5" stroke-linecap="round" stroke-linejoin="round"/>
<path d="M16.8649 7.36569V7.43469M17.1469 7.3807C17.1469 7.5377 17.0199 7.6647 16.8629 7.6647C16.7059 7.6647 16.5779 7.5377 16.5779 7.3807C16.5779 7.2237 16.7059 7.0957 16.8629 7.0957C17.0199 7.0957 17.1469 7.2237 17.1469 7.3807Z" stroke="currentColor" stroke-width="1.5" stroke-linecap="round" stroke-linejoin="round"/>
</svg>
