<svg width="24" height="25" viewBox="0 0 24 25" fill="none" xmlns="http://www.w3.org/2000/svg">
<path d="M13.7299 4.26063L15.4899 7.78063C15.7299 8.27063 16.3699 8.74063 16.9099 8.83063L20.0999 9.36062C22.1399 9.70062 22.6199 11.1806 21.1499 12.6406L18.6699 15.1206C18.2499 15.5406 18.0199 16.3506 18.1499 16.9306L18.8599 20.0006C19.4199 22.4306 18.1299 23.3706 15.9799 22.1006L12.9899 20.3306C12.4499 20.0106 11.5599 20.0106 11.0099 20.3306L8.01991 22.1006C5.87991 23.3706 4.57991 22.4206 5.13991 20.0006L5.84991 16.9306C5.97991 16.3506 5.74991 15.5406 5.32991 15.1206L2.84991 12.6406C1.38991 11.1806 1.85991 9.70062 3.89991 9.36062L7.08991 8.83063C7.61991 8.74063 8.25991 8.27063 8.49991 7.78063L10.2599 4.26063C11.2199 2.35063 12.7799 2.35063 13.7299 4.26063Z" fill="currentColor" stroke="currentColor" stroke-width="1.5" stroke-linecap="round" stroke-linejoin="round"/>
</svg>
