<svg width="24" height="25" viewBox="0 0 24 25" fill="none" xmlns="http://www.w3.org/2000/svg">
<path d="M11.9997 0.5C7.28561 0.5 3.31195 3.71908 2.53677 8.00682H1.8479C0.82416 8.00682 0 8.831 0 9.85477V15.1461C0 16.1698 0.82416 16.994 1.8479 16.994H2.73376C3.7575 16.994 4.58167 16.1698 4.58167 15.1461V9.53823C4.58167 5.76279 7.83316 2.68169 12.0006 2.68169C16.1681 2.68169 19.4195 5.76279 19.4195 9.53823V15.4626C19.4195 19.2381 16.1681 22.318 12.0006 22.318C11.398 22.3181 10.9096 22.8066 10.9097 23.4092C10.9098 24.0116 11.3981 24.5 12.0006 24.5C16.7148 24.5 20.6883 21.2816 21.4635 16.994H22.1521C23.1759 16.994 24 16.1698 24 15.1461V9.85477C24 8.83101 23.1759 8.00682 22.1521 8.00682H21.4635C20.6883 3.71908 16.7148 0.5 12.0006 0.5H11.9997ZM9.93533 16.3804C9.32991 16.3804 8.82149 16.8886 9.02637 17.4552C9.46605 18.6718 10.6312 19.5414 11.9994 19.5413C13.3677 19.5414 14.533 18.6718 14.9728 17.4552C15.1776 16.8886 14.6692 16.3804 14.0638 16.3804H9.93533Z" fill="currentColor"/>
</svg>
