<svg width="24" height="25" viewBox="0 0 24 25" fill="none" xmlns="http://www.w3.org/2000/svg">
<path fill-rule="evenodd" clip-rule="evenodd" d="M9.45671 2.4559C9.859 2.40491 10.2194 2.70201 10.2632 3.105C10.3081 3.50897 10.0188 3.87176 9.6184 3.91686C6.32893 4.28456 3.77489 6.85351 3.40571 10.1637C3.36383 10.5393 3.04823 10.8167 2.681 10.8167C2.65372 10.8167 2.62547 10.8148 2.5982 10.8118C2.19785 10.7677 1.90952 10.403 1.95433 9.999C2.39949 6.00242 5.4844 2.90007 9.45671 2.4559Z" fill="currentColor"/>
<path fill-rule="evenodd" clip-rule="evenodd" d="M6.84501 10.2321C6.77682 10.5831 6.47096 10.8263 6.12906 10.8263C6.0823 10.8263 6.03555 10.8224 5.98782 10.8135C5.59234 10.7361 5.33323 10.3488 5.41019 9.9507C5.80664 7.90926 7.37199 6.33358 9.39807 5.93745C9.78479 5.85999 10.1773 6.1208 10.2543 6.51987C10.3312 6.91796 10.0721 7.30429 9.67569 7.38175C8.23794 7.66315 7.12554 8.78192 6.84501 10.2321Z" fill="currentColor"/>
<path d="M18.2623 3.8291C17.7063 3.72065 17.1514 3.85639 16.5729 4.33105V4.33203C15.0493 5.59506 14.5062 6.42545 14.3444 6.99316C14.1998 7.50064 14.3198 7.93213 14.6422 8.59863C14.8701 9.06912 15.2276 9.76368 15.0592 10.6807C14.9192 11.443 14.4429 12.2398 13.5719 13.1865L13.1744 13.6016C12.0491 14.7344 11.1372 15.3394 10.2672 15.501C9.34997 15.6712 8.65547 15.3072 8.19006 15.0791C7.52875 14.7548 7.10496 14.6375 6.60706 14.7812C6.04701 14.9429 5.22256 15.486 3.96838 17.0176V17.0186C3.49574 17.6001 3.35805 18.1626 3.46448 18.7373C3.58798 19.4045 4.0332 20.0244 4.52795 20.5166C4.97993 20.9662 5.39891 21.2367 5.42834 21.2559L5.45959 21.2744L5.48792 21.2949C5.71662 21.4605 6.17368 21.6963 6.93225 21.6963C8.41609 21.6963 11.2198 20.7854 15.7574 16.2168C19.1972 12.7539 20.5591 10.2851 21.0074 8.63184C21.4435 7.02369 21.022 6.17044 20.774 5.82129L20.5455 5.5C20.4178 5.33304 20.2371 5.11313 20.0123 4.88672C19.5213 4.39227 18.9094 3.95105 18.2672 3.83008L18.2623 3.8291Z" stroke="currentColor" stroke-width="1.70851"/>
</svg>
