<svg width="24" height="24" viewBox="0 0 24 24" fill="none" xmlns="http://www.w3.org/2000/svg">
<path d="M19.2 7.1832C16.536 6.9192 13.856 6.7832 11.184 6.7832C9.59999 6.7832 8.01599 6.8632 6.43199 7.0232L4.79999 7.1832" stroke="currentColor" stroke-width="1.2" stroke-linecap="round" stroke-linejoin="round"/>
<path d="M9.20001 6.376L9.37601 5.328C9.50401 4.568 9.60001 4 10.952 4H13.048C14.4 4 14.504 4.6 14.624 5.336L14.8 6.376" stroke="currentColor" stroke-width="1.2" stroke-linecap="round" stroke-linejoin="round"/>
<path d="M17.48 9.71289L16.96 17.7689C16.872 19.0249 16.8 20.0009 14.568 20.0009H9.43196C7.19996 20.0009 7.12796 19.0249 7.03996 17.7689L6.51996 9.71289" stroke="currentColor" stroke-width="1.2" stroke-linecap="round" stroke-linejoin="round"/>
<path d="M10.664 15.5996H13.328" stroke="currentColor" stroke-width="1.2" stroke-linecap="round" stroke-linejoin="round"/>
<path d="M10 12.4004H14" stroke="currentColor" stroke-width="1.2" stroke-linecap="round" stroke-linejoin="round"/>
</svg>
